<?xml version="1.0" standalone="no"?>
<!DOCTYPE svg PUBLIC "-//W3C//DTD SVG 20010904//EN"
 "http://www.w3.org/TR/2001/REC-SVG-20010904/DTD/svg10.dtd">
<svg version="1.0" xmlns="http://www.w3.org/2000/svg"
 width="700.000000pt" height="700.000000pt" viewBox="0 0 700.000000 700.000000"
 preserveAspectRatio="xMidYMid meet">
<metadata>
Created by potrace 1.14, written by Peter Selinger 2001-2017
</metadata>
<g transform="translate(0.000000,700.000000) scale(0.100000,-0.100000)"
fill="#000000" stroke="none">
<path d="M0 3500 l0 -3500 3500 0 3500 0 0 3500 0 3500 -3500 0 -3500 0 0
-3500z m3274 1858 c-4 -46 -8 -90 -8 -98 -1 -12 14 -16 66 -18 l66 -3 7 58 c3
32 8 77 11 101 l5 43 67 -3 67 -3 -3 -40 c-1 -22 -5 -66 -8 -97 l-6 -58 46 0
46 0 0 -80 0 -80 -49 0 c-28 0 -52 -3 -54 -7 -3 -5 -8 -50 -11 -100 l-8 -93
61 0 61 0 0 -80 0 -80 -64 0 c-36 0 -67 -4 -70 -8 -3 -5 -8 -54 -12 -110 l-7
-102 -70 0 -69 0 7 110 7 110 -65 0 c-76 0 -71 8 -83 -137 l-6 -83 -70 0 -69
0 7 83 c12 144 15 132 -33 135 l-43 3 0 80 0 79 50 0 c56 0 53 -6 65 133 l6
67 -61 0 -60 0 0 80 0 80 65 0 c74 0 70 -7 80 123 l7 77 69 0 69 0 -6 -82z
m756 -218 l0 -290 -135 0 -135 0 0 290 0 290 135 0 135 0 0 -290z m0 -520 l0
-120 -135 0 -135 0 0 120 0 120 135 0 135 0 0 -120z m-2142 -1374 c226 -59
372 -234 372 -445 0 -154 -73 -288 -204 -377 -42 -28 -47 -34 -30 -40 122 -41
226 -130 281 -242 38 -76 38 -76 38 -201 -1 -146 -16 -198 -92 -313 -68 -104
-156 -166 -289 -205 -52 -15 -128 -17 -621 -21 l-563 -3 0 936 0 937 523 -5
c445 -3 531 -6 585 -21z m1709 14 c168 -15 261 -55 358 -155 59 -60 107 -146
131 -235 23 -86 24 -262 1 -347 -56 -210 -217 -359 -432 -399 -49 -9 -182 -17
-342 -21 l-263 -6 0 -349 0 -348 -190 0 -190 0 0 935 0 935 408 0 c224 0 457
-5 519 -10z m1391 -22 c5 -18 80 -302 168 -631 105 -399 161 -592 166 -580 6
14 121 450 319 1206 l10 37 284 0 285 0 0 -935 0 -935 -175 0 -175 0 0 722 c0
397 -2 719 -4 717 -2 -2 -82 -310 -176 -684 -94 -374 -176 -697 -181 -717
l-10 -38 -184 0 -185 0 -7 28 c-3 15 -84 335 -179 712 l-172 685 -1 -712 -1
-713 -180 0 -180 0 0 935 0 935 285 0 284 0 9 -32z"/>
<path d="M3246 5038 c-3 -24 -8 -69 -11 -100 l-6 -58 69 0 70 0 7 78 c3 42 7
86 8 97 2 18 -5 20 -65 23 l-67 3 -5 -43z"/>
<path d="M1168 2954 c-5 -4 -8 -101 -8 -216 l0 -208 263 0 c289 0 338 7 398
57 116 98 80 303 -60 347 -51 16 -580 34 -593 20z"/>
<path d="M1160 1966 l0 -246 293 0 c332 0 370 6 438 67 95 86 88 280 -13 356
-72 55 -109 60 -425 65 l-293 4 0 -246z"/>
<path d="M3050 2685 l0 -268 203 6 c111 3 226 11 255 17 124 27 202 123 202
249 -1 111 -46 181 -150 230 -53 24 -64 25 -282 29 l-228 4 0 -267z"/>
</g>
</svg>
