<svg width="27" height="27" viewBox="0 0 27 27" fill="none" xmlns="http://www.w3.org/2000/svg">
<g clip-path="url(#clip0_2_490)">
<path d="M27 0H0V27H27V0Z" fill="black"/>
<path d="M22.4809 17.5599H17.8502V21.5905H22.4809V17.5599Z" fill="white"/>
<path d="M22.4809 5.81958H17.8502V15.6176H22.4809V5.81958Z" fill="white"/>
<path d="M11.0533 17.8857H8.71681L8.38975 21.6245H6.05317L6.38023 17.8857H4.87903V15.0819H6.62557L6.91177 11.8107H4.87903V9.00689H7.15702L7.44295 5.73547H9.77953L9.49333 9.00689H11.8299L12.1161 5.73547H14.4527L14.1665 9.00689H15.6269V11.8107H13.9213L13.6351 15.0819H15.627V17.8857H13.3899L13.0628 21.6245H10.7262L11.0533 17.8857ZM11.5847 11.8107H9.24826L8.96206 15.0822H11.2986L11.5847 11.8107Z" fill="white"/>
</g>
<defs>
<clipPath id="clip0_2_490">
<rect width="27" height="27" fill="white"/>
</clipPath>
</defs>
</svg>
