<svg width="136" height="162" viewBox="0 0 136 162" fill="none" xmlns="http://www.w3.org/2000/svg">
<g clip-path="url(#clip0_2_16)">
<path d="M136.217 95.235H104.124H92.44V109.412V109.965V127.313L92.438 161.844H104.124H136.217V127.313" fill="url(#paint0_linear_2_16)"/>
<path d="M18.3879 119.297H42.9429L42.8019 102.971" fill="url(#paint1_linear_2_16)"/>
<path d="M42.943 133.474H77.109L80.187 116.331L74.129 113.465" fill="url(#paint2_linear_2_16)"/>
<path d="M6.11 112.208L7.891 90.618L0 86.062L0.048 69.137L10.15 63.267L10.786 55.547L0.104 49.38L0.152 32.455L13.329 24.797L13.686 20.479L48.926 0L61.203 7.089L59.967 22.031L73.481 14.177L85.759 21.266L84.202 40.156L86.954 41.745L103.609 32.078L127.947 46.13L127.78 105.299L117.643 111.189L127.746 117.022L127.677 141.365L92.438 161.844L68.099 147.792L68.168 123.45L78.305 117.559L74.129 115.351L42.943 133.474L30.665 126.385L31.898 111.446L18.388 119.297L6.11 112.208Z" fill="#3A3A3A"/>
<path d="M20.1689 97.707L55.4089 77.228L53.6269 98.818L18.3879 119.297L20.1689 97.707Z" fill="#0D0D0D"/>
<path d="M0.0479736 69.137L35.288 48.658L44.469 53.959L9.22897 74.438L0.0479736 69.137Z" fill="#444545"/>
<path d="M44.725 111.884L79.964 91.405L78.183 112.995L42.943 133.474L44.725 111.884Z" fill="#0D0D0D"/>
<path d="M0.151978 32.455L35.392 11.976L47.363 18.887L12.123 39.366L0.151978 32.455Z" fill="#444545"/>
<path d="M35.347 69.728L70.587 49.249L69.024 68.136L33.785 88.615L35.347 69.728Z" fill="black"/>
<path d="M23.0699 62.639L58.3089 42.16L70.5869 49.249L35.3469 69.728L23.0699 62.639Z" fill="black"/>
<path d="M33.785 88.615L21.507 81.526L23.07 62.639L35.347 69.728L33.785 88.615Z" fill="black"/>
<path d="M46.062 95.703L81.302 75.224L91.773 81.27L56.533 101.749L46.062 95.703Z" fill="#171717"/>
<path d="M56.533 101.749L91.773 81.27L91.725 98.195L56.485 118.674L56.533 101.749Z" fill="#0D0D0D"/>
<path d="M47.625 76.816L82.865 56.337L81.302 75.224L46.062 95.703L47.625 76.816Z" fill="black"/>
<path d="M24.401 46.455L59.641 25.976L71.925 33.068L36.685 53.547L24.401 46.455Z" fill="#181818"/>
<path d="M25.964 27.568L61.203 7.08899L59.641 25.976L24.401 46.455L25.964 27.568Z" fill="#0D0D0D"/>
<path d="M13.686 20.479L48.926 0L61.203 7.089L25.964 27.568L13.686 20.479Z" fill="#444545"/>
<path d="M56.637 65.066L91.877 44.587L91.829 61.512L56.589 81.992L56.637 65.066Z" fill="#0D0D0D"/>
<path d="M48.963 60.636L84.202 40.156L91.877 44.587L56.637 65.066L48.963 60.636Z" fill="#171717"/>
<path d="M38.241 34.656L73.481 14.177L85.759 21.266L50.519 41.745L38.241 34.656Z" fill="#444545"/>
<path d="M56.589 81.992L47.625 76.816L46.062 95.703L56.533 101.749L56.485 118.674L44.725 111.884L42.943 133.474L30.665 126.385L32.447 104.795L20.169 97.707L18.388 119.297L6.11 112.208L7.891 90.618L0 86.062L0.048 69.137L9.229 74.438L10.786 55.547L0.104 49.38L0.152 32.455L12.123 39.366L13.686 20.479L25.964 27.568L24.401 46.455L36.685 53.547L38.241 34.656L50.519 41.745L48.963 60.636L56.637 65.066L56.589 81.992Z" fill="#3A3A3A"/>
<path d="M50.519 41.745L85.759 21.266L84.202 40.156L48.963 60.636L50.519 41.745Z" fill="#0D0D0D"/>
<path d="M92.507 137.502L127.746 117.022L127.677 141.365L92.438 161.844L92.507 137.502Z" fill="#0D0D0D"/>
<path d="M68.168 123.45L103.408 102.971L127.746 117.022L92.507 137.502L68.168 123.45Z" fill="#444545"/>
<path d="M82.865 123.45L110.78 107.227L127.746 117.022L99.831 133.245L82.865 123.45Z" fill="#171717"/>
<path d="M92.507 137.502L92.438 161.844L68.099 147.792L68.168 123.45L92.507 137.502Z" fill="#3A3A3A"/>
<path d="M92.708 66.609L127.947 46.13L127.78 105.299L92.54 125.778L92.708 66.609Z" fill="#0D0D0D"/>
<path d="M68.369 52.558L103.609 32.078L127.947 46.13L92.708 66.609L68.369 52.558Z" fill="#444545"/>
<path d="M92.7081 66.609L92.5401 125.778L68.201 111.726L68.3691 52.558L92.7081 66.609Z" fill="#3A3A3A"/>
<path d="M33.8 88.909L21.522 81.821L35.037 73.967L33.8 88.909Z" fill="#0D0D0D"/>
<path d="M21.522 81.821L23.085 62.941L35.363 70.03L35.037 73.967L21.522 81.821Z" fill="#0D0D0D"/>
<path d="M21.522 81.821L34.377 81.786L35.037 73.967" fill="#171717"/>
<path d="M24.401 46.4551L37.256 46.4241L37.915 38.6591" fill="#171717"/>
<path d="M48.963 60.723L56.637 65.066L64.261 60.636L48.963 60.723Z" fill="#444545"/>
<path d="M46.062 95.703L56.533 101.749L66.913 95.703H46.062Z" fill="#444545"/>
<path d="M24.401 46.455L36.685 53.547L37.256 46.424L24.401 46.455Z" fill="#444545"/>
<path d="M21.522 81.817L33.8 88.909L34.377 81.786L21.522 81.817Z" fill="#444545"/>
</g>
<defs>
<linearGradient id="paint0_linear_2_16" x1="89.4028" y1="119.56" x2="164.44" y2="146.593" gradientUnits="userSpaceOnUse">
<stop offset="0.117"/>
<stop offset="0.2459" stop-color="#040404"/>
<stop offset="0.3774" stop-color="#101010"/>
<stop offset="0.5101" stop-color="#252525"/>
<stop offset="0.6437" stop-color="#414141"/>
<stop offset="0.7781" stop-color="#666666"/>
<stop offset="0.9111" stop-color="#939393"/>
<stop offset="1" stop-color="#B5B5B5"/>
</linearGradient>
<linearGradient id="paint1_linear_2_16" x1="30.1119" y1="110.297" x2="37.2166" y2="122.603" gradientUnits="userSpaceOnUse">
<stop/>
<stop offset="1" stop-color="#C9C9C9"/>
</linearGradient>
<linearGradient id="paint2_linear_2_16" x1="2268.41" y1="2549.86" x2="2391.43" y2="2946.48" gradientUnits="userSpaceOnUse">
<stop/>
<stop offset="1" stop-color="#C9C9C9"/>
</linearGradient>
<clipPath id="clip0_2_16">
<rect width="136.217" height="161.844" fill="white"/>
</clipPath>
</defs>
</svg>
