<svg width="125" height="23" viewBox="0 0 125 23" fill="none" xmlns="http://www.w3.org/2000/svg">
<g clip-path="url(#clip0_2_287)">
<path d="M11.3763 1.14838H17.4027L10.2155 10.3037L17.7889 22.649H12.053L6.73556 13.3661L4.8663 15.631V22.649H0V1.14838H4.8663V10.6546H4.96296L11.3763 1.14838Z" fill="white"/>
<path d="M32.7748 22.649H28.2952V21.086H28.1986C27.1668 22.3304 25.5559 22.9996 23.6868 22.9996C20.4964 22.9996 18.5948 20.7028 18.5948 18.2145C18.5948 14.1632 22.2688 12.2173 27.844 12.2492V12.0261C27.844 11.1967 27.3933 10.0164 24.9757 10.0164C23.3643 10.0164 21.6563 10.5587 20.625 11.1967L19.7227 8.07057C20.8184 7.46445 22.9776 6.69879 25.8458 6.69879C31.0988 6.69879 32.7745 9.7612 32.7745 13.4297L32.7748 22.649ZM28.0051 15.28C25.427 15.2482 23.4289 15.8543 23.4289 17.7363C23.4289 18.9807 24.2667 19.5865 25.3621 19.5865C25.9219 19.5897 26.4687 19.4191 26.9254 19.0986C27.3821 18.7782 27.7258 18.324 27.908 17.8001C27.9738 17.5284 28.0062 17.25 28.0047 16.9706L28.0051 15.28Z" fill="white"/>
<path d="M36.2858 0H41.184V8.90007H41.2484C42.183 7.56034 43.8266 6.699 46.0181 6.699C49.7886 6.699 52.5602 9.79323 52.5281 14.5783C52.5281 20.1927 48.9186 22.9999 45.3092 22.9999C43.4722 22.9999 41.6997 22.3299 40.5718 20.4797H40.5095V22.649H36.2858V0ZM41.184 16.0138C41.1807 16.3038 41.2131 16.593 41.2807 16.8752C41.6029 18.1831 42.7309 19.1719 44.1489 19.1719C46.2437 19.1719 47.5327 17.5769 47.5327 14.7696C47.5327 12.3452 46.437 10.4312 44.1489 10.4312C42.8276 10.4312 41.6029 11.4201 41.2807 12.8237C41.215 13.1169 41.1826 13.4165 41.184 13.7169V16.0138Z" fill="white"/>
<path d="M70.8632 14.674C70.8632 20.3841 66.7703 22.9999 62.5486 22.9999C57.9402 22.9999 54.3951 20.0012 54.3951 14.9611C54.3951 9.92086 57.7467 6.69891 62.8063 6.69891C67.6405 6.69903 70.8632 9.98473 70.8632 14.674ZM59.4548 14.8336C59.4548 17.5131 60.5827 19.5229 62.6775 19.5229C64.579 19.5229 65.8036 17.6408 65.8036 14.8336C65.8036 12.5049 64.9013 10.1443 62.6775 10.1443C60.325 10.1443 59.4548 12.5368 59.4548 14.8336Z" fill="white"/>
<path d="M89.1983 14.674C89.1983 20.3841 85.1054 22.9999 80.8836 22.9999C76.2752 22.9999 72.7301 20.0012 72.7301 14.9611C72.7301 9.92086 76.0818 6.69891 81.1414 6.69891C85.9755 6.69903 89.1983 9.98473 89.1983 14.674ZM77.7898 14.8336C77.7898 17.5131 78.9177 19.5229 81.0126 19.5229C82.914 19.5229 84.1386 17.6408 84.1386 14.8336C84.1386 12.5049 83.2363 10.1443 81.0126 10.1443C78.66 10.1443 77.7898 12.5368 77.7898 14.8336Z" fill="white"/>
<path d="M91.8712 7.04987H96.0934V9.15527H96.1901C96.8668 8.16643 98.2526 6.69897 100.96 6.69897C102.99 6.69897 104.601 7.72033 105.278 9.34674H105.343C105.886 8.59219 106.577 7.95238 107.373 7.46464C108.243 6.9542 109.21 6.69909 110.37 6.69909C113.399 6.69909 115.687 8.80448 115.687 13.4618V22.6491H110.918V14.1636C110.918 11.8988 110.176 10.5908 108.597 10.5908C107.469 10.5908 106.664 11.3563 106.341 12.2813C106.212 12.6836 106.147 13.1035 106.148 13.5257V22.6491H101.378V13.9084C101.378 11.9306 100.669 10.5908 99.1219 10.5908C97.8647 10.5908 97.1238 11.5478 96.8338 12.3453C96.6913 12.7333 96.6257 13.1449 96.6404 13.5575V22.649H91.8712V7.04987Z" fill="white"/>
<path d="M119.231 20.0652C119.231 18.3425 120.424 17.0984 122.132 17.0984C123.84 17.0984 125 18.3107 125 20.0652C125 21.7557 123.84 23.0001 122.1 23.0001C120.424 23 119.231 21.7558 119.231 20.0652Z" fill="white"/>
</g>
<defs>
<clipPath id="clip0_2_287">
<rect width="125" height="23" fill="white"/>
</clipPath>
</defs>
</svg>
